<mxfile host="app.diagrams.net" modified="2023-12-24T06:14:05.797Z" agent="Mozilla/5.0 (Windows NT 10.0; Win64; x64) AppleWebKit/537.36 (KHTML, like Gecko) Chrome/120.0.0.0 Safari/537.36" version="22.1.11" etag="CZ0MNkgIcevpv6Sk_y4O" type="github">
  <diagram name="Page-1" id="dHXCaOlUSKk5QcXLbgn8">
    <mxGraphModel>
      <root>
        <mxCell id="0" />
        <mxCell id="1" parent="0" />
      </root>
    </mxGraphModel>
  </diagram>
</mxfile>
